<svg xmlns="http://www.w3.org/2000/svg" viewBox="0 0 100 100">
  <circle cx="50" cy="50" r="47" fill="#27B4E9"/>
  <path fill="#FFFFFF" d="
    M 49.28 20.04
    C 42.8 25.8, 34.16 34.44, 31.28 44.52
    C 28.4 51.72, 28.4 58.92, 31.28 66.84
    C 34.16 73.32, 39.92 78.36, 47.12 81.24
    C 50.0 82.32, 52.88 82.32, 55.76 81.24
    C 61.52 79.08, 65.84 74.04, 68.72 67.56
    C 71.6 60.36, 71.6 51.72, 68.72 44.52
    C 65.84 37.32, 62.96 33.72, 60.8 33.0
    C 62.96 38.76, 62.96 45.96, 60.8 53.16
    C 58.64 60.36, 55.04 66.84, 50.72 72.6
    C 48.56 75.48, 47.84 77.64, 48.56 79.08
    C 49.28 76.2, 50.0 71.88, 50.72 66.12
    C 52.16 57.48, 52.88 48.84, 52.16 40.2
    C 51.44 33.0, 50.72 25.8, 49.28 20.04
    Z
  "/>
</svg>
